<?xml version="1.0" encoding="UTF-8"?>
<svg id="Capa_1" xmlns="http://www.w3.org/2000/svg" version="1.1" viewBox="0 0 1080 1350">
  <!-- Generator: Adobe Illustrator 29.4.0, SVG Export Plug-In . SVG Version: 2.1.0 Build 152)  -->
  <defs>
    <style>
      .st0 {
        fill: #1d1d1b;
      }
    </style>
  </defs>
  <path class="st0" d="M381.08,978.43h5.49v35.07h17.51v4.98h-23v-40.05Z"/>
  <path class="st0" d="M439.67,978.43h5.49v40.05h-5.49v-40.05Z"/>
  <path class="st0" d="M511.97,981.09c2.35,1.77,3.52,4.23,3.52,7.35,0,2.29-.65,4.23-1.95,5.81-1.3,1.59-3.07,2.64-5.32,3.18,2.79.42,4.97,1.54,6.55,3.35,1.58,1.81,2.37,4.07,2.37,6.78,0,3.43-1.29,6.11-3.86,8.04-2.58,1.92-6.14,2.89-10.67,2.89h-17.39v-40.05h17.11c4.08,0,7.29.88,9.64,2.66ZM507.79,993.85c1.36-1.05,2.03-2.55,2.03-4.49s-.68-3.37-2.03-4.41c-1.35-1.03-3.27-1.53-5.75-1.49h-11.33v11.96h11.33c2.48,0,4.4-.52,5.75-1.57ZM509.02,1011.76c1.68-1.16,2.52-2.79,2.52-4.89s-.84-3.6-2.52-4.75c-1.68-1.14-4-1.71-6.98-1.71h-11.33v13.05h11.33c2.97.04,5.3-.52,6.98-1.69Z"/>
  <path class="st0" d="M580.43,1018.48l-7.95-12.59c-.91.08-1.66.12-2.24.12h-10.19v12.47h-5.49v-40.05h15.68c5.07,0,8.99,1.17,11.76,3.52,2.77,2.35,4.15,5.67,4.15,9.99,0,3.24-.75,5.97-2.26,8.18-1.51,2.21-3.67,3.82-6.49,4.81l9.33,13.56h-6.3ZM570.24,1001.03c3.44,0,6.07-.75,7.9-2.26s2.74-3.73,2.74-6.67-.91-5.03-2.74-6.49c-1.83-1.47-4.46-2.21-7.9-2.21h-10.19v17.63h10.19Z"/>
  <path class="st0" d="M652.67,980.77c3.22,1.79,5.77,4.24,7.63,7.35,1.87,3.11,2.81,6.53,2.81,10.27s-.93,7.18-2.81,10.33c-1.87,3.15-4.41,5.63-7.63,7.44-3.23,1.82-6.77,2.72-10.62,2.72s-7.39-.9-10.61-2.72c-3.23-1.81-5.77-4.29-7.64-7.44-1.87-3.15-2.81-6.59-2.81-10.33s.94-7.16,2.81-10.27c1.87-3.11,4.41-5.56,7.61-7.35,3.2-1.79,6.75-2.69,10.64-2.69s7.39.9,10.62,2.69ZM634.36,985.07c-2.38,1.37-4.28,3.23-5.69,5.58-1.41,2.35-2.12,4.93-2.12,7.76s.7,5.42,2.12,7.78c1.41,2.37,3.31,4.24,5.69,5.64,2.38,1.39,4.97,2.09,7.75,2.09s5.35-.7,7.7-2.09c2.35-1.39,4.22-3.27,5.61-5.64,1.39-2.37,2.09-4.96,2.09-7.78s-.7-5.41-2.09-7.76c-1.39-2.34-3.26-4.2-5.61-5.58-2.34-1.38-4.91-2.06-7.7-2.06s-5.37.69-7.75,2.06Z"/>
  <path class="st0" d="M717.21,984.12c-2-.59-3.84-.89-5.52-.89-2.33,0-4.19.45-5.58,1.35-1.39.9-2.08,2.13-2.08,3.69,0,1.41.42,2.57,1.26,3.46.84.9,1.87,1.6,3.09,2.12,1.22.51,2.92,1.11,5.09,1.8,2.71.84,4.9,1.64,6.58,2.4,1.68.76,3.11,1.9,4.29,3.41,1.18,1.51,1.77,3.5,1.77,5.98,0,2.29-.62,4.29-1.86,6.01-1.25,1.71-2.98,3.04-5.21,3.98-2.23.93-4.8,1.4-7.7,1.4s-5.8-.57-8.58-1.72c-2.78-1.14-5.19-2.67-7.21-4.58l2.46-4.75c1.9,1.87,4.05,3.31,6.44,4.32,2.38,1.01,4.7,1.51,6.95,1.51,2.67,0,4.78-.52,6.32-1.57,1.55-1.05,2.32-2.47,2.32-4.26,0-1.41-.42-2.58-1.26-3.49-.84-.91-1.9-1.64-3.17-2.17-1.28-.53-3.01-1.12-5.18-1.77-2.67-.8-4.85-1.58-6.52-2.34-1.68-.76-3.1-1.89-4.26-3.38-1.16-1.49-1.74-3.45-1.74-5.89,0-2.13.59-4.02,1.77-5.66,1.18-1.64,2.84-2.9,4.98-3.78,2.13-.88,4.61-1.32,7.44-1.32,2.4,0,4.76.35,7.07,1.06,2.3.71,4.36,1.65,6.15,2.83l-2.29,4.92c-1.87-1.18-3.81-2.07-5.81-2.66Z"/>
  <polygon class="st0" points="374.81 773.9 544.58 393.47 572.76 393.47 443.21 681.82 404.27 773.9 374.81 773.9"/>
  <path class="st0" d="M488.3,336.69c-3.01-1.01-5.91-.46-9.04-.26-7.96.51-16.84,3.42-25.62,4.58-16.87-6.88-34.29-11.37-53.22-9.07-18.73,2.28-32.34,12.7-43.08,27.54-2.91,4.75-12.68,24.39-15.32,29.26-94.32,174.09-27.89,339.75,10.31,384.32l7.7-18.07c-18.36-29.09-34.99-78.98-34.91-128.61.12-80.4,35.9-162.77,79.82-158.73,27.05,2.49,47.59,39.8,56.01,76.59l7.83-18.55c.22-70.8-14.65-134.96-69.49-113.32-10.67,4.21-20.01,16.66-22.08,11.5-4.95-12.27-6.28-24.46,1.24-36.32,1.23-1.93,6.55-5.49,11.74-2.42,5.64,3.34,11.4,6.52,17.71,8.47,12.11,3.72,22.53,5.35,33-3.49.32-6.6,2.26-12.66,6.85-19.35,5.97-8.69,14.57-14.55,23.67-19.75,5.51-3.14,11.25-5.59,17.13-7.86,1.35-.52,3.79-.87,3.55-3.3-.21-2.15-2.1-2.6-3.8-3.17ZM422.39,361.68c-4.79.41-9.01-3.09-9.46-7.84-.44-4.7,3.1-9.12,7.73-9.67,4.63-.54,9.15,3.03,9.7,7.67.59,5.03-2.96,9.42-7.97,9.84Z"/>
  <g>
    <polygon class="st0" points="771.95 773.52 601.18 395.56 601.15 395.56 586.35 427.93 742.46 773.52 771.95 773.52"/>
    <polygon class="st0" points="684.4 773.26 713.27 773.26 571.57 460.28 557.09 491.95 633.12 660.88 479.86 660.88 469.34 683.91 643.57 683.91 684.4 773.26"/>
  </g>
  <path class="st0" d="M933.2,847.87h-16.24l-37.84,86.29h15.36l7.82-18.66h44.43l7.82,18.66h16l-37.35-86.29ZM907.84,902.97l17.13-40.61,16.85,40.61h-33.98Z"/>
  <path class="st0" d="M162.65,847.87h-16.24l-37.84,86.29h15.36l7.82-18.66h44.43l7.82,18.66h16l-37.35-86.29ZM137.29,902.97l17.13-40.61,16.85,40.61h-33.98Z"/>
  <polygon class="st0" points="412.86 846.47 338.11 846.66 338.11 859.61 368.48 859.61 368.48 934.64 381.79 934.64 381.79 859.61 412.86 859.61 412.86 846.47"/>
  <rect class="st0" x="730.13" y="846.55" width="13.1" height="88.23"/>
  <polygon class="st0" points="705.81 846.47 631.06 846.66 631.06 859.61 661.42 859.61 661.42 934.64 674.74 934.64 674.74 859.61 705.81 859.61 705.81 846.47"/>
  <path class="st0" d="M850.84,869.18v-16.8l-1.44-.79c-7.18-3.95-15.39-6.04-23.73-6.04-26.07,0-47.27,20.03-47.27,44.65s21.2,44.64,47.27,44.64c8.33,0,16.54-2.09,23.73-6.04l1.43-.79v-16.8l-4.54,3.39c-5.92,4.43-13.06,6.77-20.63,6.77-18.3,0-33.18-13.99-33.18-31.17s14.88-31.18,33.18-31.18c7.57,0,14.7,2.34,20.63,6.78l4.54,3.39Z"/>
  <path class="st0" d="M467.45,847.87h-16.24l-37.84,86.29h15.36l7.82-18.66h44.43l7.82,18.66h16l-37.35-86.29ZM442.09,902.97l17.13-40.61,16.85,40.61h-33.98Z"/>
  <polygon class="st0" points="287.8 847 287.8 911.09 236.41 846.48 236.24 846.48 236.24 846.48 216.08 846.48 216.08 854.1 225.66 857.78 225.66 934.64 238.98 934.64 238.98 870.93 239.82 872.01 289.31 934.64 301.65 934.64 301.65 847 287.8 847"/>
  <path class="st0" d="M588.6,906.13l.35-.24c3.96-2.65,13.23-10.69,13.84-28.16.95-26.89-26.19-30.88-26.46-30.92l-31.94-.27.08-.09h-19.13v7.63l8.83,3.39.04-.05v77.39h12.79v-23.81h.48c4.05.05,10.07.1,14.87.1,4.52,0,7.3-.04,8.5-.13,1.74-.12,3.25-.41,4.21-.63l.35-.08.17.32,12.88,24.23h15.22l-15.08-28.69ZM583.8,893.55c-4.17,4.17-9.65,4.3-10.26,4.3h-26.18v-38.41h27.44c1.44.21,14.11,2.5,14.15,18.42.02,6.97-1.71,12.25-5.15,15.7Z"/>
</svg>